<svg width="16" height="19" viewBox="0 0 16 19" fill="none" xmlns="http://www.w3.org/2000/svg">
<path d="M13.6876 6.375C13.3232 6.3746 12.9646 6.46566 12.6446 6.63984C12.5489 6.34357 12.3911 6.07113 12.1816 5.84075C11.9722 5.61036 11.716 5.42734 11.4302 5.30391C11.1444 5.18048 10.8355 5.11949 10.5242 5.12501C10.2129 5.13053 9.90634 5.20244 9.62507 5.33594V2.9375C9.62507 2.35734 9.3946 1.80094 8.98436 1.3907C8.57413 0.980468 8.01773 0.75 7.43757 0.75C6.85741 0.75 6.30101 0.980468 5.89077 1.3907C5.48054 1.80094 5.25007 2.35734 5.25007 2.9375V9.1875L4.95163 8.70859C4.80733 8.46006 4.61549 8.24238 4.38706 8.06798C4.15864 7.89358 3.8981 7.76588 3.62032 7.69218C3.05932 7.54332 2.46217 7.62342 1.96022 7.91484C1.45828 8.20627 1.09267 8.68516 0.943809 9.24616C0.794952 9.80715 0.875047 10.4043 1.16647 10.9062L1.53132 11.5492C4.2196 16.2883 5.3321 18.25 9.00007 18.25C10.8228 18.2479 12.5703 17.5229 13.8591 16.2341C15.148 14.9452 15.873 13.1977 15.8751 11.375V8.5625C15.8751 7.98234 15.6446 7.42594 15.2344 7.0157C14.8241 6.60547 14.2677 6.375 13.6876 6.375ZM14.6251 11.375C14.6234 12.8663 14.0302 14.2961 12.9757 15.3506C11.9212 16.4052 10.4914 16.9983 9.00007 17C6.06022 17 5.26257 15.5938 2.61882 10.9313L2.25241 10.2852V10.2812C2.128 10.0661 2.09408 9.81045 2.1581 9.57035C2.22211 9.33026 2.37883 9.12539 2.59382 9.00078C2.73622 8.91829 2.898 8.87515 3.06257 8.87578C3.22737 8.87554 3.38932 8.91874 3.5321 9.00104C3.67488 9.08333 3.79345 9.20181 3.87585 9.34453C3.87903 9.35079 3.88269 9.3568 3.88679 9.3625L5.34538 11.7063C5.41737 11.8212 5.52478 11.9096 5.65142 11.9581C5.77806 12.0066 5.91705 12.0127 6.04741 11.9753C6.17777 11.9379 6.29243 11.8591 6.37409 11.7508C6.45574 11.6425 6.49996 11.5106 6.50007 11.375V2.9375C6.50007 2.68886 6.59884 2.4504 6.77465 2.27459C6.95047 2.09877 7.18893 2 7.43757 2C7.68621 2 7.92466 2.09877 8.10048 2.27459C8.2763 2.4504 8.37507 2.68886 8.37507 2.9375V8.25C8.37507 8.41576 8.44092 8.57473 8.55813 8.69194C8.67534 8.80915 8.83431 8.875 9.00007 8.875C9.16583 8.875 9.3248 8.80915 9.44201 8.69194C9.55922 8.57473 9.62507 8.41576 9.62507 8.25V7.3125C9.62507 7.06386 9.72384 6.8254 9.89966 6.64959C10.0755 6.47377 10.3139 6.375 10.5626 6.375C10.8112 6.375 11.0497 6.47377 11.2255 6.64959C11.4013 6.8254 11.5001 7.06386 11.5001 7.3125V8.875C11.5001 9.04076 11.5659 9.19973 11.6831 9.31694C11.8003 9.43415 11.9593 9.5 12.1251 9.5C12.2908 9.5 12.4498 9.43415 12.567 9.31694C12.6842 9.19973 12.7501 9.04076 12.7501 8.875V8.5625C12.7501 8.31386 12.8488 8.0754 13.0247 7.89959C13.2005 7.72377 13.4389 7.625 13.6876 7.625C13.9362 7.625 14.1747 7.72377 14.3505 7.89959C14.5263 8.0754 14.6251 8.31386 14.6251 8.5625V11.375Z" fill="white"/>
</svg>
