<svg width="18" height="14" viewBox="0 0 18 14" fill="none" xmlns="http://www.w3.org/2000/svg">
<path d="M16.5 2.5H12.75V1.875C12.75 1.37772 12.5525 0.900806 12.2008 0.549175C11.8492 0.197544 11.3723 0 10.875 0H7.125C6.62772 0 6.15081 0.197544 5.79917 0.549175C5.44754 0.900806 5.25 1.37772 5.25 1.875V2.5H1.5C1.16848 2.5 0.850537 2.6317 0.616116 2.86612C0.381696 3.10054 0.25 3.41848 0.25 3.75V12.5C0.25 12.8315 0.381696 13.1495 0.616116 13.3839C0.850537 13.6183 1.16848 13.75 1.5 13.75H16.5C16.8315 13.75 17.1495 13.6183 17.3839 13.3839C17.6183 13.1495 17.75 12.8315 17.75 12.5V3.75C17.75 3.41848 17.6183 3.10054 17.3839 2.86612C17.1495 2.6317 16.8315 2.5 16.5 2.5ZM6.5 1.875C6.5 1.70924 6.56585 1.55027 6.68306 1.43306C6.80027 1.31585 6.95924 1.25 7.125 1.25H10.875C11.0408 1.25 11.1997 1.31585 11.3169 1.43306C11.4342 1.55027 11.5 1.70924 11.5 1.875V2.5H6.5V1.875ZM16.5 3.75V6.25H14V5.625C14 5.45924 13.9342 5.30027 13.8169 5.18306C13.6997 5.06585 13.5408 5 13.375 5C13.2092 5 13.0503 5.06585 12.9331 5.18306C12.8158 5.30027 12.75 5.45924 12.75 5.625V6.25H5.25V5.625C5.25 5.45924 5.18415 5.30027 5.06694 5.18306C4.94973 5.06585 4.79076 5 4.625 5C4.45924 5 4.30027 5.06585 4.18306 5.18306C4.06585 5.30027 4 5.45924 4 5.625V6.25H1.5V3.75H16.5ZM16.5 12.5H1.5V7.5H4V8.125C4 8.29076 4.06585 8.44973 4.18306 8.56694C4.30027 8.68415 4.45924 8.75 4.625 8.75C4.79076 8.75 4.94973 8.68415 5.06694 8.56694C5.18415 8.44973 5.25 8.29076 5.25 8.125V7.5H12.75V8.125C12.75 8.29076 12.8158 8.44973 12.9331 8.56694C13.0503 8.68415 13.2092 8.75 13.375 8.75C13.5408 8.75 13.6997 8.68415 13.8169 8.56694C13.9342 8.44973 14 8.29076 14 8.125V7.5H16.5V12.5Z" fill="white"/>
</svg>
