<svg width="20" height="14" viewBox="0 0 20 14" fill="none" xmlns="http://www.w3.org/2000/svg">
<path d="M9.35626 13.5266C9.32246 13.6618 9.24444 13.7818 9.1346 13.8676C9.02475 13.9534 8.88938 14 8.75001 14C8.69735 14.0003 8.64487 13.994 8.59376 13.9813L6.09376 13.3563C6.02416 13.3388 5.95809 13.3095 5.89845 13.2696L4.02345 12.0196C3.88556 11.9276 3.78986 11.7846 3.75741 11.622C3.72495 11.4594 3.7584 11.2907 3.8504 11.1528C3.9424 11.0149 4.08541 10.9192 4.24796 10.8867C4.41052 10.8543 4.57931 10.8877 4.7172 10.9797L6.50157 12.1696L8.89689 12.7688C8.97692 12.7882 9.05233 12.8232 9.11878 12.8718C9.18523 12.9205 9.24141 12.9818 9.2841 13.0522C9.32679 13.1226 9.35514 13.2008 9.36752 13.2822C9.37991 13.3636 9.37608 13.4467 9.35626 13.5266ZM19.7227 5.99065C19.6714 6.14642 19.5898 6.29048 19.4825 6.41451C19.3752 6.53855 19.2444 6.6401 19.0977 6.71331L17.2477 7.63831L12.9445 11.9422C12.8682 12.0185 12.7733 12.0737 12.6693 12.1025C12.5652 12.1312 12.4555 12.1325 12.3508 12.1063L7.35079 10.8563C7.27476 10.8372 7.20295 10.8041 7.13907 10.7586L2.80157 7.66174L0.904698 6.71331C0.608242 6.56511 0.382777 6.30524 0.277881 5.99084C0.172984 5.67645 0.197243 5.33326 0.345323 5.03674L2.28673 1.15471C2.43493 0.858256 2.6948 0.632792 3.00919 0.527895C3.32359 0.422998 3.66678 0.447257 3.96329 0.595338L5.68673 1.45471L9.82736 0.2719C9.93969 0.23977 10.0588 0.23977 10.1711 0.2719L14.3117 1.45471L16.0352 0.595338C16.3317 0.447257 16.6749 0.422998 16.9893 0.527895C17.3037 0.632792 17.5635 0.858256 17.7117 1.15471L19.6531 5.03674C19.7272 5.18326 19.7715 5.34301 19.7834 5.50674C19.7953 5.67047 19.7747 5.83494 19.7227 5.99065ZM16.1149 7.00159L13.9891 2.75003H11.5031L8.12501 6.03128C9.11407 6.66331 10.6649 6.83753 12.0563 5.43518C12.1649 5.32565 12.3103 5.26018 12.4643 5.25138C12.6184 5.24259 12.7702 5.29108 12.8906 5.38753L15.5789 7.54143L16.1149 7.00159ZM1.46329 5.59534L2.84532 6.28674L4.78673 2.40471L3.4047 1.71331L1.46329 5.59534ZM14.6875 8.42659L12.5227 6.69299C10.9961 7.94299 9.05782 8.10784 7.45157 7.08362C7.29357 6.98311 7.16017 6.84839 7.06122 6.68941C6.96228 6.53042 6.90032 6.35124 6.87992 6.16509C6.85952 5.97895 6.8812 5.7906 6.94337 5.61395C7.00553 5.43731 7.10659 5.2769 7.23907 5.14456C7.24096 5.14228 7.24305 5.14019 7.24532 5.13831L10.75 1.73909L10 1.52503L6.06095 2.65081L3.92267 6.92659L7.76642 9.67268L12.3086 10.8078L14.6875 8.42659ZM18.5344 5.59534L16.5953 1.71331L15.2133 2.40471L17.1547 6.28674L18.5344 5.59534Z" fill="white"/>
</svg>
